<?xml version="1.0" standalone="no"?>
<!DOCTYPE svg PUBLIC "-//W3C//DTD SVG 20010904//EN"
 "http://www.w3.org/TR/2001/REC-SVG-20010904/DTD/svg10.dtd">
<svg version="1.0" xmlns="http://www.w3.org/2000/svg"
 width="256.000000pt" height="256.000000pt" viewBox="0 0 256.000000 256.000000"
 preserveAspectRatio="xMidYMid meet">
<metadata>
Created by potrace 1.11, written by Peter Selinger 2001-2013
</metadata>
<g transform="translate(0.000000,256.000000) scale(0.100000,-0.100000)"
fill="#000000" stroke="none">
<path d="M1309 2456 c-2 -2 -26 -6 -54 -10 -73 -8 -196 -42 -290 -80 -407
-161 -755 -524 -890 -930 -40 -117 -39 -114 -59 -231 -18 -99 -14 -303 7 -400
23 -103 66 -211 112 -285 l23 -36 -24 -27 c-30 -35 -47 -100 -39 -146 25 -141
202 -202 305 -106 l25 23 59 -29 c223 -109 492 -127 774 -53 34 10 62 21 62
25 0 5 11 4 24 -1 63 -23 295 -34 394 -18 340 57 634 295 755 613 34 90 63
225 62 295 l0 55 -129 2 c-71 1 -130 4 -132 5 -2 2 4 23 12 47 85 248 71 564
-34 786 -38 79 -38 80 -19 100 65 68 68 185 5 252 -71 76 -184 83 -261 15 -15
-13 -22 -14 -38 -4 -74 47 -209 102 -284 116 -16 4 -41 9 -55 12 -30 7 -304
16 -311 10z m179 -195 c33 -18 53 -72 41 -113 -14 -53 -46 -70 -139 -70 -42 0
-88 3 -101 7 -36 11 -61 42 -66 84 -4 30 0 43 21 68 15 18 37 34 49 36 37 7
175 -1 195 -12z"/>
</g>
</svg>
